<svg xmlns="http://www.w3.org/2000/svg" viewBox="0 0 247.85 96.36"><defs><style>.cls-1{fill:#d22630;fill-rule:evenodd;}</style></defs><title>favicon</title><g id="Layer_2" data-name="Layer 2"><g id="Layer_1-2" data-name="Layer 1"><path class="cls-1" d="M229.58,94.5h18.27l-6.27-5.38-6.34,1.42L224,73.38l-2-23.8,7-8.69c-.29-14.34-2.37-27.44-14-33.87l2.35,3.51-7.68,6.84L214,9.76,210,0a15.28,15.28,0,0,0-7.71,6.69l.4-2.41c-10.49,1.22-21,5.37-31.38,15.19a12.3,12.3,0,0,0,3.07,3l1.43-2-.67-2.28,2,2.38-.93,3a35.2,35.2,0,0,0,11.3,2.93L196,23.63l6.25,2.07h0a21.07,21.07,0,0,1-4.34,14l-7.11,5.83,4.43-6.24a17.22,17.22,0,0,0,.93-7.28l-30,1.84-48.86-5.51C74.74,50,50.48,83.76,0,94.46c30.91.6,39.68,2.11,67-6.16L84,63l20.28-12.63-7.19,17-11.8,5.92L76.7,96.36H96.82L91,91.91l-6,.56,6.35-12.91,26.87-2.83,21.51-17.51c1.27-3.76,2.41-8.31.36-13.61C145.35,51.66,144,58.11,144,59.9l-16,18,24.68,12.62h17.91l-6.65-5.44-6,1.47L142.26,74.86,151.09,73l9.45-8.56L149,59.77l13.24.49c5.67,2.08.49.21,29.56,10.66l14.91,24.23h18.92l-6.44-5.48-7.48,1.53-7.85-22.65,16.35-16.77-11,17.9ZM194.55,12l-4.23,3.61L187.83,14l-5.42,1.89A56.64,56.64,0,0,1,190.56,11l5.08.66Zm12.79-6a13.69,13.69,0,0,0-3.48,2.42,17.5,17.5,0,0,1,4.71-5.23L211,9.79l-2,3.68Z"/></g></g></svg>